# xmcd CD database file
#
# Track frame offsets:
#	150
#	19763
#	34728
#	52767
#	72139
#	97643
#	112649
#	124134
#	140382
#	160138
#	176875
#	199806
#
# Disc length: 2912 seconds
#
# Revision: 0
# Processed by: cddbd v1.5.2PL0 Copyright (c) Steve Scherf et al.
# Submitted via: CDex 1.70beta2
#
DISCID=910b5e0c
DTITLE=Inger Marie Gundersen - By Myself
DYEAR=2006
DGENRE=Jazz
TTITLE0=I don't want to talk about it
TTITLE1=By Myself
TTITLE2=A taste of honey
TTITLE3=Sad Song
TTITLE4=One
TTITLE5=Don't let me be lonely tonight
TTITLE6=I' so lonesome I could cry
TTITLE7=I will
TTITLE8=Where were you
TTITLE9=If you go away
TTITLE10=Don't explain
TTITLE11=You don't know what love is
EXTD=YEAR: 2006
EXTT0=
EXTT1=
EXTT2=
EXTT3=
EXTT4=
EXTT5=
EXTT6=
EXTT7=
EXTT8=
EXTT9=
EXTT10=
EXTT11=
PLAYORDER=
